<svg width="65" height="66" viewBox="0 0 65 66" fill="none" xmlns="http://www.w3.org/2000/svg">
<path d="M29.1325 0.860762C28.8842 0.920703 27.6641 1.13478 26.4216 1.33616C3.08536 5.12129 -7.95234 33.5865 6.49491 52.7247C10.994 58.6846 21.326 65.4331 21.8377 62.7461C21.9018 62.4104 21.2867 61.9858 19.7602 61.3116C13.4974 58.5455 7.83014 53.0959 4.73802 46.8668C-6.49249 24.2433 12.7217 -1.35794 37.8124 2.79777C41.5816 3.42228 42.2362 2.1207 38.5423 1.3462C36.861 0.993636 30.0396 0.641668 29.1325 0.860762ZM29.2831 7.53192C24.8708 8.18212 19.1929 10.4413 19.1929 11.5468C19.1929 12.4046 19.8301 12.3381 22.159 11.2376C34.9152 5.21076 50.4455 11.8052 55.0663 25.2107C62.7467 47.493 37.3917 66.3552 18.1388 52.6813C7.44038 45.083 4.97335 29.9912 12.6535 19.1241C14.6915 16.2405 13.619 15.0213 11.5379 17.8562C-1.28442 35.3242 12.1028 59.9971 33.7353 58.7655C55.5727 57.5224 66.0136 31.3553 50.9864 15.5315C45.4775 9.73055 36.59 6.45535 29.2831 7.53192ZM55.5381 11.4659C55.0902 11.9138 55.4324 12.7155 56.8663 14.5784C67.4962 28.3884 64.0158 49.0308 49.4206 58.7425C42.8439 63.1184 37.0695 64.3314 26.2713 63.6054C25.2544 63.5368 25.0663 63.6148 25.0663 64.105C25.0663 66.331 37.9911 65.7275 44.3994 63.2017C63.1908 55.7959 70.5998 31.8898 59.2728 15.2103C57.1234 12.0455 56.0427 10.9613 55.5381 11.4659ZM23.5314 22.7422C22.9973 23.3321 22.9515 24.024 22.8697 32.7399C22.7354 47.0687 21.3092 46.6356 38.6106 37.5207C47.0424 33.0783 47.0897 33.2177 34.9964 26.874C25.5414 21.9142 24.5915 21.5717 23.5314 22.7422ZM33.9803 28.1631C43.167 32.9614 43.2148 32.9912 42.5723 33.5244C41.8518 34.1227 25.4705 42.5906 25.0344 42.5906C24.6842 42.5906 24.6145 41.0159 24.6145 33.1028C24.6145 26.4476 24.7128 23.6147 24.9434 23.6147C25.1241 23.6147 29.1907 25.6616 33.9803 28.1631Z" fill="white"/>
</svg>
